# xmcd
#
# Track frame offsets: 
#        150
#        12430
#        28145
#        42810
#        56450
#        66325
#        81070
#        91530
#        104225
#        119150
#        131910
#        145935
#        153460
#        163940
#        175540
#        178925
#        193415
#        210125
#        223625
#
# Disc length: 3281 seconds
#
# Revision: 0
# Processed by: cddbd v1.5.2PL0 Copyright (c) Steve Scherf et al.
# Submitted via: ExactAudioCopy v0.99pb3
#
DISCID=190ccf13
DTITLE=Michael Hakanson-Stacy - Pearls and Stones
DYEAR=1995
DGENRE=Blues
TTITLE0=Political Blues
TTITLE1=Old Boy
TTITLE2=Death Of Rev. Dan
TTITLE3=I Am The Light Of This World
TTITLE4=Running From The Blues Police
TTITLE5=Double Shot
TTITLE6=Shout Sister Shout
TTITLE7=When The Roll Is Called Up Yonder
TTITLE8=Stagolee
TTITLE9=Constantly Thinking
TTITLE10=Under My Strings
TTITLE11=Cotton Needs Pickin'
TTITLE12=I Saw The Light
TTITLE13=Farmer's Lament
TTITLE14=Casting Pearls
TTITLE15=Board To Preach The Gospel
TTITLE16=Railroad Bill's Blues
TTITLE17=Casting Stones
TTITLE18=Gallows Pole
EXTD=
EXTT0=
EXTT1=
EXTT2=
EXTT3=
EXTT4=
EXTT5=
EXTT6=
EXTT7=
EXTT8=
EXTT9=
EXTT10=
EXTT11=
EXTT12=
EXTT13=
EXTT14=
EXTT15=
EXTT16=
EXTT17=
EXTT18=
PLAYORDER=
